{
    "asset": {
        "version": "2.0",
        "generator": "Open Asset Import Library (assimp v5.0.cd42b995)"
    },
    "extensionsUsed": [
        "FB_ngon_encoding"
    ],
    "accessors": [
        {
            "bufferView": 0,
            "byteOffset": 0,
            "componentType": 5126,
            "count": 2346,
            "type": "VEC3",
            "max": [
                109.24505615234375,
                6.593233108520508,
                78.0017318725586
            ],
            "min": [
                -116.40286254882813,
                -0.4467470049858093,
                -81.40587615966797
            ]
        },
        {
            "bufferView": 1,
            "byteOffset": 0,
            "componentType": 5126,
            "count": 2346,
            "type": "VEC2",
            "max": [
                6.9375,
                1.0
            ],
            "min": [
                -0.00559999980032444,
                0.0
            ]
        },
        {
            "bufferView": 2,
            "byteOffset": 0,
            "componentType": 5125,
            "count": 11754,
            "type": "SCALAR",
            "max": [
                2345
            ],
            "min": [
                0
            ]
        }
    ],
    "buffers": [
        {
            "byteLength": 93936,
            "uri": "result.bin"
        }
    ],
    "bufferViews": [
        {
            "buffer": 0,
            "byteOffset": 0,
            "byteLength": 28152,
            "target": 34962
        },
        {
            "buffer": 0,
            "byteOffset": 28152,
            "byteLength": 18768,
            "target": 34962
        },
        {
            "buffer": 0,
            "byteOffset": 46920,
            "byteLength": 47016,
            "target": 34963
        }
    ],
    "materials": [
        {
            "name": "DefaultMaterial",
            "pbrMetallicRoughness": {
                "baseColorFactor": [
                    0.6000000238418579,
                    0.6000000238418579,
                    0.6000000238418579,
                    1.0
                ],
                "metallicFactor": 0.0
            }
        }
    ],
    "meshes": [
        {
            "name": "defaultobject",
            "primitives": [
                {
                    "extensions": {
                        "FB_ngon_encoding": {}
                    },
                    "mode": 4,
                    "material": 0,
                    "indices": 2,
                    "attributes": {
                        "POSITION": 0,
                        "TEXCOORD_0": 1
                    }
                }
            ]
        }
    ],
    "nodes": [
        {
            "name": "input.obj",
            "children": [
                1
            ]
        },
        {
            "name": "defaultobject",
            "mesh": 0
        }
    ],
    "scenes": [
        {
            "nodes": [
                0
            ]
        }
    ],
    "scene": 0
}