{"accessors" : [{"bufferView" : 0, "byteOffset" : 0, "componentType" : 5123, "count" : 11754, "type" : "SCALAR", "max" : [9877], "min" : [0]}, {"bufferView" : 1, "byteOffset" : 0, "componentType" : 5126, "count" : 9878, "type" : "VEC3", "max" : [109.24505615234375, 6.593233108520508, 78.0017318725586], "min" : [-116.40286254882812, -0.4467470049858093, -81.40587615966797], "name" : "POSITION"}, {"bufferView" : 1, "byteOffset" : 12, "componentType" : 5126, "count" : 9878, "type" : "VEC2", "max" : [6.9375, -0], "min" : [-0.00559999980032444, -1], "name" : "TEXCOORD_0"}], "asset" : {"generator" : "Aspose.3D 23.9.0", "version" : "2.0"}, "buffers" : [{"uri" : "data:application/octet-stream;base64,", "byteLength" : 258596}], "bufferViews" : [{"buffer" : 0, "byteOffset" : 0, "byteLength" : 23508, "target" : 34963}, {"buffer" : 0, "byteOffset" : 23512, "byteLength" : 235080, "byteStride" : 20, "target" : 34962}], "meshes" : [{"primitives" : [{"attributes" : {"POSITION" : 1, "TEXCOORD_0" : 2}, "indices" : 0, "mode" : 4}], "name" : ""}], "nodes" : [{"mesh" : 0, "name" : ""}], "scene" : 0, "scenes" : [{"nodes" : [0]}]}